{"title":"Night.Of.The.Living.Dead.Re.Animation.2012.DvDRip.XviD.Ac3.Feel-","uid":7102120,"size":1004799950,"categoryP":"video","categoryS":"movies","magnet":"?xt=urn:btih:9d6942a104e053ac2db31254e0e34d75a7de39ba&amp;dn=Night.Of.The.Living.Dead.Re.Animation.2012.DvDRip.XviD.Ac3.Feel-&amp;tr=udp%3A%2F%2Ftracker.openbittorrent.com%3A80&amp;tr=udp%3A%2F%2Fopen.demonii.com%3A1337&amp;tr=udp%3A%2F%2Ftracker.coppersurfer.tk%3A6969&amp;tr=udp%3A%2F%2Fexodus.desync.com%3A6969","seeders":0,"leechers":1,"uploader":null,"files":7,"time":1331730982,"description":"Genre:Horror\nLanguage:English\nIMDb:http://www.imdb.com/title/tt1879012/\nSource:DVD Thanks!\nEncoder:Tony\n\nFormat : AVI\nFormat/Info : Audio Video Interleave\nFile size : 957 MiB\nDuration : 1h 24mn\nOverall bit rate : 1 584 Kbps\n\nVideo\nID : 0\nFormat : MPEG-4 Visual\nFormat profile : Advanced Simple@L5\nFormat settings, BVOP : 1\nFormat settings, QPel : No\nFormat settings, GMC : No warppoints\nFormat settings, Matrix : Default (H.263)\nCodec ID : XVID\nCodec ID/Hint : XviD\nDuration : 1h 24mn\nBit rate : 1 126 Kbps\nWidth : 640 pixels\nHeight : 360 pixels\nDisplay aspect ratio : 16:9\nFrame rate : 25.000 fps\nColor space : YUV\nChroma subsampling : 4:2:0\nBit depth : 8 bits\nScan type : Progressive\nCompression mode : Lossy\nBits/(Pixel*Frame) : 0.195\nStream size : 680 MiB (71%)\nWriting library : XviD 1.2.1 (UTC 2008-12-04)\n\nAudio\nID : 1\nFormat : AC-3\nFormat/Info : Audio Coding 3\nMode extension : CM (complete main)\nCodec ID : 2000\nDuration : 1h 24mn\nBit rate mode : Constant\nBit rate : 448 Kbps\nChannel(s) : 6 channels\nChannel positions : Front: L C R, Side: L R, LFE\nSampling rate : 48.0 KHz\nBit depth : 16 bits\nCompression mode : Lossy\nStream size : 271 MiB (28%)\nAlignment : Split accross interleaves\nInterleave, duration : 40 ms (1.00 video frame)\nInterleave, preload duration : 500 ms\n\n\nPlot:\nAfter inheriting the family mortuary, a pyrophobic mortician accidentally exposes hundreds of un-cremated bodies to toxic medical waste.","torrent":{"xt":"urn:btih:9d6942a104e053ac2db31254e0e34d75a7de39ba","amp;dn":"Night.Of.The.Living.Dead.Re.Animation.2012.DvDRip.XviD.Ac3.Feel-","amp;tr":["udp%3A%2F%2Ftracker.openbittorrent.com%3A80","udp%3A%2F%2Fopen.demonii.com%3A1337","udp%3A%2F%2Ftracker.coppersurfer.tk%3A6969","udp%3A%2F%2Fexodus.desync.com%3A6969"],"infoHash":"9d6942a104e053ac2db31254e0e34d75a7de39ba","infoHashBuffer":{"type":"Buffer","data":[157,105,66,161,4,224,83,172,45,179,18,84,224,227,77,117,167,222,57,186]},"announce":[],"urlList":[]}}